<svg width="95" height="33" viewBox="0 0 95 33" fill="none" xmlns="http://www.w3.org/2000/svg">
<path d="M3.36737 3.36734H7.88358V13.4694M7.88358 23.5714V13.4694M7.88358 13.4694H21.1945V23.5714" stroke="#08694A" stroke-width="4.39736"/>
<rect x="18.8175" y="3.36734" width="4.7539" height="4.7539" fill="#D1E797"/>
<rect x="5.74432" y="26.6274" width="17.8271" height="4.7539" fill="#D1E797"/>
<path d="M31.7816 12.3383V0.761078H35.1522V4.97686H39.5921V0.761078H42.9628V12.3383H39.5921V7.57119H35.1522V12.3383H31.7816Z" fill="#08694A"/>
<path d="M48.3126 0.761078V2.86897H45.2319V0.761078H48.3126ZM45.2319 12.3383V3.92291H48.3126V12.3383H45.2319Z" fill="#08694A"/>
<path d="M59.5827 3.92291V11.3167C59.5827 11.6627 59.5585 11.9815 59.5102 12.2734C59.4739 12.5545 59.3652 12.895 59.184 13.2949C59.0028 13.6949 58.7551 14.03 58.441 14.3002C58.139 14.5705 57.6799 14.8029 57.0637 14.9974C56.4476 15.192 55.7227 15.2893 54.8891 15.2893C54.285 15.2893 53.7474 15.2515 53.2762 15.1758C52.8051 15.111 52.346 14.9812 51.899 14.7867C51.4519 14.6029 51.0895 14.3272 50.8116 13.9597C50.5338 13.5922 50.3525 13.1382 50.268 12.5977H53.3487C53.4212 12.9544 53.5964 13.1976 53.8743 13.3274C54.14 13.4463 54.5146 13.5057 54.9978 13.5057C55.6623 13.5057 56.0972 13.3382 56.3026 13.0031C56.508 12.668 56.6107 12.1815 56.6107 11.5438V10.7492H56.5744C55.9824 11.5708 55.1488 11.9815 54.0736 11.9815C52.7084 11.9815 51.6754 11.5978 50.9747 10.8303C50.2861 10.0628 49.9418 9.05212 49.9418 7.79819C49.9418 6.63074 50.3103 5.65247 51.0472 4.86336C51.7842 4.07425 52.793 3.6797 54.0736 3.6797C55.2092 3.6797 56.0489 4.11208 56.5926 4.97686H56.6288V3.92291H59.5827ZM56.665 7.91169C56.665 7.30635 56.514 6.8037 56.212 6.40374C55.91 5.99297 55.4448 5.78759 54.8166 5.78759C54.1884 5.78759 53.7293 5.99297 53.4393 6.40374C53.1615 6.8037 53.0225 7.30094 53.0225 7.89548C53.0225 8.44677 53.1735 8.917 53.4756 9.30614C53.7776 9.68448 54.2186 9.87365 54.7985 9.87365C55.4146 9.87365 55.8798 9.68989 56.1939 9.32236C56.508 8.94402 56.665 8.4738 56.665 7.91169Z" fill="#08694A"/>
<path d="M61.6727 12.3383V3.92291H64.6628V5.39844H64.699C65.1581 4.30666 66.1005 3.76077 67.5261 3.76077C67.8039 3.76077 68.0456 3.78239 68.2509 3.82563V6.33888C67.8523 6.23078 67.4596 6.17674 67.073 6.17674C66.3481 6.17674 65.7803 6.37131 65.3695 6.76046C64.9588 7.1388 64.7534 7.60902 64.7534 8.17113V12.3383H61.6727Z" fill="#08694A"/>
<path d="M72.0345 6.51724H69.1531C69.2014 5.49032 69.6907 4.73905 70.621 4.26342C71.3821 3.87427 72.3788 3.6797 73.6111 3.6797C74.0943 3.6797 74.5293 3.70132 74.9159 3.74455C75.3146 3.78779 75.7132 3.86887 76.1119 3.98777C76.5106 4.10668 76.8428 4.26883 77.1086 4.47421C77.3744 4.67959 77.5858 4.95524 77.7429 5.30115C77.912 5.63625 77.9966 6.03621 77.9966 6.50103V10.1817C77.9966 11.1762 78.1174 11.8951 78.3591 12.3383H75.2602C75.236 12.2842 75.1756 12.0194 75.079 11.5438C74.3541 12.2356 73.3211 12.5815 71.9801 12.5815C71.0257 12.5815 70.2525 12.3653 69.6605 11.9329C69.0685 11.5005 68.7725 10.8681 68.7725 10.0358C68.7725 9.60341 68.8631 9.22507 69.0443 8.90078C69.2256 8.57649 69.443 8.32787 69.6967 8.15491C69.9504 7.98196 70.2887 7.83062 70.7116 7.7009C71.1465 7.57119 71.5271 7.48471 71.8533 7.44147C72.1915 7.39823 72.6083 7.34418 73.1037 7.27933C73.6111 7.21447 73.9917 7.16042 74.2454 7.11718C74.5353 7.05232 74.7407 6.97125 74.8615 6.87396C74.9944 6.76586 75.0608 6.58751 75.0608 6.33888C75.0608 6.04702 74.9038 5.83083 74.5897 5.6903C74.2876 5.53896 73.9494 5.4633 73.5748 5.4633C72.6929 5.4633 72.1795 5.81461 72.0345 6.51724ZM71.8533 9.9223C71.8533 10.5601 72.2821 10.879 73.1399 10.879C73.8648 10.879 74.3662 10.6898 74.644 10.3114C74.934 9.9223 75.0608 9.28452 75.0246 8.39813C74.8555 8.49542 74.5232 8.5873 74.0279 8.67378C73.5446 8.76025 73.2426 8.81971 73.1218 8.85214C72.2761 9.02509 71.8533 9.38181 71.8533 9.9223Z" fill="#08694A"/>
<path d="M80.0222 12.3383V3.92291H83.0123V5.07415H83.0485C83.3385 4.64176 83.7191 4.30125 84.1902 4.05263C84.6614 3.80401 85.1809 3.6797 85.7487 3.6797C87.126 3.6797 88.0381 4.1337 88.4851 5.04172C89.2342 4.1337 90.2128 3.6797 91.4209 3.6797C91.9887 3.6797 92.4841 3.76077 92.9069 3.92291C93.3298 4.07425 93.656 4.26342 93.8855 4.49042C94.115 4.71743 94.2963 5.00388 94.4292 5.34979C94.5621 5.6957 94.6466 6.01459 94.6829 6.30645C94.7191 6.59831 94.7372 6.93341 94.7372 7.31175V12.3383H91.6565V7.39283C91.6565 6.93882 91.5417 6.58751 91.3122 6.33888C91.0826 6.07945 90.7685 5.94973 90.3698 5.94973C89.7658 5.94973 89.3731 6.1335 89.1919 6.50103C89.0107 6.85775 88.9201 7.43066 88.9201 8.21977V12.3383H85.8393V7.55497C85.8393 6.48481 85.4527 5.94973 84.6795 5.94973C84.1117 5.94973 83.707 6.12269 83.4654 6.4686C83.2237 6.8037 83.1029 7.39283 83.1029 8.23598V12.3383H80.0222Z" fill="#08694A"/>
<path d="M48.3126 2.86897V0.761078H45.2319V2.86897H48.3126Z" fill="#D1E797"/>
<path d="M35.2843 18.316V25.7693H36.9415C38.2723 25.7441 39.2202 25.4414 39.7851 24.8613C40.3626 24.2811 40.6514 23.3164 40.6514 21.967C40.6514 19.533 39.4147 18.316 36.9415 18.316H35.2843ZM31.7815 28.796V15.2893H37.5629C39.6219 15.2893 41.2352 15.882 42.4028 17.0675C43.5704 18.2529 44.1541 19.8924 44.1541 21.9859C44.1541 24.1803 43.5704 25.8639 42.4028 27.0367C41.2477 28.2096 39.6345 28.796 37.5629 28.796H31.7815Z" fill="#D1E797"/>
<path d="M55.8449 24.6721H48.6699C48.695 25.3657 48.8959 25.9143 49.2725 26.3179C49.6617 26.7088 50.189 26.9043 50.8544 26.9043C51.2687 26.9043 51.639 26.816 51.9655 26.6395C52.3044 26.4503 52.543 26.1791 52.6811 25.826H55.6754C55.3866 26.9106 54.7966 27.724 53.9052 28.2663C53.0138 28.8086 51.9843 29.0797 50.8167 29.0797C49.1972 29.0797 47.8978 28.6194 46.9185 27.6988C45.9518 26.7656 45.4684 25.4855 45.4684 23.8587C45.4684 22.3705 45.9769 21.1409 46.9938 20.1699C48.0233 19.1862 49.2725 18.6943 50.7414 18.6943C52.4363 18.6943 53.7294 19.2555 54.6208 20.3779C55.5122 21.5003 55.9202 22.9317 55.8449 24.6721ZM48.6699 22.875H52.6434C52.6183 22.3075 52.4237 21.8345 52.0596 21.4562C51.7081 21.0653 51.2687 20.8698 50.7414 20.8698C50.189 20.8698 49.7307 21.0526 49.3667 21.4184C49.0026 21.7715 48.7703 22.257 48.6699 22.875Z" fill="#D1E797"/>
<path d="M56.8868 25.5612H59.9376C59.9376 26.0278 60.1134 26.3935 60.4649 26.6584C60.7662 26.8854 61.1617 26.9989 61.6513 26.9989C62.0154 26.9989 62.3544 26.9106 62.6683 26.734C62.9947 26.5575 63.1579 26.299 63.1579 25.9584C63.1579 25.8071 63.1265 25.681 63.0637 25.5801C63.001 25.4666 62.8942 25.372 62.7436 25.2964C62.5929 25.2207 62.4737 25.1702 62.3858 25.145C62.3104 25.1072 62.1661 25.063 61.9526 25.0126C61.7392 24.9622 61.6199 24.9306 61.5948 24.918C61.394 24.8676 61.055 24.7919 60.5779 24.691C60.1008 24.5901 59.743 24.5081 59.5045 24.4451C59.2659 24.382 58.9583 24.2748 58.5817 24.1235C58.2176 23.9596 57.9414 23.783 57.7531 23.5938C57.5773 23.4047 57.4141 23.1524 57.2635 22.8371C57.1254 22.5093 57.0563 22.1309 57.0563 21.7021C57.0563 21.1472 57.1944 20.668 57.4706 20.2644C57.7468 19.8483 58.1109 19.533 58.5629 19.3186C59.0274 19.1042 59.5045 18.9466 59.9941 18.8457C60.4837 18.7448 60.9922 18.6943 61.5195 18.6943C62.097 18.6943 62.6306 18.7448 63.1202 18.8457C63.6099 18.9339 64.0744 19.0916 64.5138 19.3186C64.9658 19.5456 65.3236 19.8798 65.5872 20.3212C65.8509 20.75 65.9953 21.267 66.0204 21.8724H63.0637C63.0637 21.4688 62.9256 21.1851 62.6494 21.0211C62.4109 20.8572 62.0719 20.7752 61.6325 20.7752C60.716 20.7752 60.2578 21.0211 60.2578 21.513C60.2578 21.6895 60.3268 21.8472 60.4649 21.9859C60.603 22.112 60.8227 22.2255 61.124 22.3264C61.4379 22.4273 61.7078 22.5029 61.9338 22.5534C62.1598 22.6038 62.4988 22.6732 62.9507 22.7615C63.4153 22.8498 63.7228 22.9065 63.8735 22.9317C64.4761 23.0578 64.972 23.2912 65.3612 23.6317C65.763 23.9596 66.0266 24.2874 66.1522 24.6153C66.2903 24.9432 66.3593 25.2648 66.3593 25.5801C66.3593 26.4125 66.1145 27.0998 65.6249 27.6421C65.1353 28.1843 64.5515 28.5627 63.8735 28.7771C63.2081 28.9789 62.4737 29.0797 61.6702 29.0797C60.8164 29.0797 60.0569 28.9852 59.3915 28.796C58.7261 28.5942 58.1486 28.2222 57.6589 27.6799C57.1693 27.1376 56.9119 26.4314 56.8868 25.5612Z" fill="#D1E797"/>
<path d="M71.2305 15.2893V17.7485H68.0291V15.2893H71.2305ZM68.0291 28.796V18.9781H71.2305V28.796H68.0291Z" fill="#D1E797"/>
<path d="M82.9421 18.9781V27.6042C82.9421 28.0078 82.917 28.3798 82.8668 28.7203C82.8291 29.0482 82.7161 29.4455 82.5278 29.9121C82.3395 30.3787 82.0821 30.7697 81.7557 31.0849C81.4418 31.4002 80.9648 31.6714 80.3245 31.8984C79.6842 32.1254 78.9309 32.2389 78.0646 32.2389C77.4369 32.2389 76.8782 32.1947 76.3886 32.1065C75.8989 32.0308 75.4219 31.8795 74.9573 31.6525C74.4928 31.4381 74.1162 31.1165 73.8274 30.6877C73.5387 30.2589 73.3503 29.7292 73.2625 29.0987H76.4639C76.5392 29.5148 76.7213 29.7986 77.01 29.9499C77.2862 30.0887 77.6754 30.158 78.1776 30.158C78.8681 30.158 79.3201 29.9625 79.5335 29.5716C79.747 29.1806 79.8537 28.6131 79.8537 27.8691V26.9421H79.816C79.2008 27.9006 78.3346 28.3798 77.2172 28.3798C75.7985 28.3798 74.7251 27.9321 73.9969 27.0367C73.2813 26.1413 72.9235 24.9622 72.9235 23.4992C72.9235 22.1372 73.3064 20.9959 74.0722 20.0753C74.8381 19.1546 75.8864 18.6943 77.2172 18.6943C78.3973 18.6943 79.2699 19.1988 79.8348 20.2077H79.8725V18.9781H82.9421ZM79.9102 23.6317C79.9102 22.9254 79.7532 22.339 79.4394 21.8724C79.1255 21.3932 78.6421 21.1535 77.9893 21.1535C77.3365 21.1535 76.8594 21.3932 76.5581 21.8724C76.2693 22.339 76.1249 22.9191 76.1249 23.6127C76.1249 24.2559 76.2819 24.8045 76.5957 25.2585C76.9096 25.6999 77.3678 25.9206 77.9705 25.9206C78.6108 25.9206 79.0941 25.7062 79.4205 25.2774C79.747 24.836 79.9102 24.2874 79.9102 23.6317Z" fill="#D1E797"/>
<path d="M85.001 28.796V18.9781H88.1083V20.3212H88.146C88.4347 19.8293 88.8678 19.4384 89.4454 19.1483C90.0229 18.8457 90.6129 18.6943 91.2156 18.6943C93.5633 18.6943 94.7372 19.9618 94.7372 22.4966V28.796H91.5357V23.0642C91.5357 21.9165 91.0021 21.3427 89.935 21.3427C89.37 21.3427 88.9369 21.5508 88.6356 21.967C88.3468 22.3705 88.2024 22.8624 88.2024 23.4425V28.796H85.001Z" fill="#D1E797"/>
<path d="M71.2305 17.7485V15.2893H68.0291V17.7485H71.2305Z" fill="#08694A"/>
</svg>
