<svg width="16" height="16" viewBox="0 0 16 16" fill="none" xmlns="http://www.w3.org/2000/svg">
<path d="M8.00001 15.7778C5.83951 15.7778 4.00309 15.0216 2.49075 13.5093C0.978402 11.9969 0.222229 10.1605 0.222229 8.00001C0.222229 5.83951 0.978402 4.00309 2.49075 2.49075C4.00309 0.978402 5.83951 0.222229 8.00001 0.222229C8.20165 0.222229 8.39984 0.229431 8.59457 0.243834C8.78931 0.258237 8.98001 0.279842 9.16667 0.308649C8.57614 0.726344 8.10429 1.27021 7.75112 1.94025C7.39795 2.61029 7.22165 3.33392 7.22223 4.11112C7.22223 5.40741 7.67593 6.50927 8.58334 7.41667C9.49075 8.32408 10.5926 8.77778 11.8889 8.77778C12.6811 8.77778 13.4084 8.6012 14.071 8.24803C14.7335 7.89486 15.2737 7.4233 15.6914 6.83334C15.7202 7.02058 15.7418 7.21128 15.7562 7.40544C15.7706 7.5996 15.7778 7.79778 15.7778 8.00001C15.7778 10.1605 15.0216 11.9969 13.5093 13.5093C11.9969 15.0216 10.1605 15.7778 8.00001 15.7778Z" fill="#08694A"/>
</svg>
