<svg width="16" height="16" viewBox="0 0 16 16" fill="none" xmlns="http://www.w3.org/2000/svg">
<path d="M8.00072 4.75925C6.21183 4.75925 4.75998 6.2111 4.75998 7.99999C4.75998 9.78888 6.21183 11.2407 8.00072 11.2407C9.78961 11.2407 11.2415 9.78888 11.2415 7.99999C11.2415 6.2111 9.78961 4.75925 8.00072 4.75925ZM1.51924 8.64814H2.81554C3.17202 8.64814 3.46369 8.35647 3.46369 7.99999C3.46369 7.64351 3.17202 7.35184 2.81554 7.35184H1.51924C1.16276 7.35184 0.871094 7.64351 0.871094 7.99999C0.871094 8.35647 1.16276 8.64814 1.51924 8.64814ZM13.1859 8.64814H14.4822C14.8387 8.64814 15.1304 8.35647 15.1304 7.99999C15.1304 7.64351 14.8387 7.35184 14.4822 7.35184H13.1859C12.8294 7.35184 12.5378 7.64351 12.5378 7.99999C12.5378 8.35647 12.8294 8.64814 13.1859 8.64814ZM7.35258 1.51851V2.81481C7.35258 3.17129 7.64424 3.46295 8.00072 3.46295C8.35721 3.46295 8.64887 3.17129 8.64887 2.81481V1.51851C8.64887 1.16203 8.35721 0.870361 8.00072 0.870361C7.64424 0.870361 7.35258 1.16203 7.35258 1.51851ZM7.35258 13.1852V14.4815C7.35258 14.838 7.64424 15.1296 8.00072 15.1296C8.35721 15.1296 8.64887 14.838 8.64887 14.4815V13.1852C8.64887 12.8287 8.35721 12.537 8.00072 12.537C7.64424 12.537 7.35258 12.8287 7.35258 13.1852ZM4.10535 3.19073C4.04539 3.13065 3.97417 3.08298 3.89576 3.05045C3.81735 3.01793 3.7333 3.00118 3.64841 3.00118C3.56352 3.00118 3.47947 3.01793 3.40106 3.05045C3.32265 3.08298 3.25143 3.13065 3.19146 3.19073C3.13138 3.25069 3.08371 3.32192 3.05118 3.40033C3.01866 3.47874 3.00192 3.56279 3.00192 3.64768C3.00192 3.73256 3.01866 3.81662 3.05118 3.89503C3.08371 3.97343 3.13138 4.04466 3.19146 4.10462L3.8785 4.79166C4.13128 5.04444 4.54609 5.04444 4.79239 4.79166C5.03869 4.53888 5.04517 4.12407 4.79239 3.87777L4.10535 3.19073ZM12.1229 11.2083C12.063 11.1482 11.9918 11.1006 11.9134 11.068C11.8349 11.0355 11.7509 11.0188 11.666 11.0188C11.5811 11.0188 11.4971 11.0355 11.4187 11.068C11.3402 11.1006 11.269 11.1482 11.2091 11.2083C11.149 11.2683 11.1013 11.3395 11.0688 11.4179C11.0363 11.4963 11.0195 11.5804 11.0195 11.6653C11.0195 11.7502 11.0363 11.8342 11.0688 11.9126C11.1013 11.991 11.149 12.0623 11.2091 12.1222L11.8961 12.8093C12.1489 13.062 12.5637 13.062 12.81 12.8093C12.8701 12.7493 12.9177 12.6781 12.9503 12.5997C12.9828 12.5212 12.9995 12.4372 12.9995 12.3523C12.9995 12.2674 12.9828 12.1834 12.9503 12.105C12.9177 12.0265 12.8701 11.9553 12.81 11.8954L12.1229 11.2083ZM12.81 4.10462C12.8701 4.04466 12.9177 3.97343 12.9503 3.89503C12.9828 3.81662 12.9995 3.73256 12.9995 3.64768C12.9995 3.56279 12.9828 3.47874 12.9503 3.40033C12.9177 3.32192 12.8701 3.25069 12.81 3.19073C12.75 3.13065 12.6788 3.08298 12.6004 3.05045C12.522 3.01793 12.4379 3.00118 12.353 3.00118C12.2682 3.00118 12.1841 3.01793 12.1057 3.05045C12.0273 3.08298 11.9561 3.13065 11.8961 3.19073L11.2091 3.87777C10.9563 4.13055 10.9563 4.54536 11.2091 4.79166C11.4618 5.03795 11.8766 5.04444 12.1229 4.79166L12.81 4.10462ZM4.79239 12.1222C4.85248 12.0623 4.90015 11.991 4.93267 11.9126C4.9652 11.8342 4.98194 11.7502 4.98194 11.6653C4.98194 11.5804 4.9652 11.4963 4.93267 11.4179C4.90015 11.3395 4.85248 11.2683 4.79239 11.2083C4.73243 11.1482 4.6612 11.1006 4.58279 11.068C4.50439 11.0355 4.42033 11.0188 4.33545 11.0188C4.25056 11.0188 4.16651 11.0355 4.0881 11.068C4.00969 11.1006 3.93846 11.1482 3.8785 11.2083L3.19146 11.8954C2.93869 12.1481 2.93869 12.563 3.19146 12.8093C3.44424 13.0555 3.85906 13.062 4.10535 12.8093L4.79239 12.1222Z" fill="#08694A"/>
</svg>
